<svg width="18" height="32" viewBox="0 0 18 32" fill="none" xmlns="http://www.w3.org/2000/svg">
<path fill-rule="evenodd" clip-rule="evenodd" d="M12.4427 0.336112C13.3618 0.948817 13.6101 2.19056 12.9974 3.10961L5.73704 14.0002H16C16.7376 14.0002 17.4153 14.4062 17.7634 15.0565C18.1114 15.7068 18.0732 16.4959 17.6641 17.1096L8.33077 31.1096C7.71807 32.0287 6.47633 32.277 5.55727 31.6643C4.63821 31.0516 4.38986 29.8099 5.00257 28.8908L12.263 18.0002H2C1.26241 18.0002 0.584692 17.5942 0.236654 16.9439C-0.111384 16.2936 -0.0732391 15.5045 0.335902 14.8908L9.66924 0.890812C10.2819 -0.0282453 11.5237 -0.276593 12.4427 0.336112Z" fill="white"/>
</svg>
